<svg width="1440" height="59" viewBox="0 0 1440 59" fill="none" xmlns="http://www.w3.org/2000/svg">
<g opacity="0.7">
<path opacity="0.8" d="M1325.67 51.17L1273.65 51.17L1299.57 6.17L1325.67 51.17Z" fill="#C5C5C5"/>
<path opacity="0.8" d="M1377.67 51.17L1325.65 51.17L1351.57 6.17L1377.67 51.17Z" fill="#C5C5C5"/>
<path opacity="0.8" d="M1428.67 51.17L1376.65 51.17L1402.57 6.17L1428.67 51.17Z" fill="#C5C5C5"/>
<path opacity="0.8" d="M1440 51.1699H1428.65L1440 32V51.1699Z" fill="#C5C5C5"/>
<path opacity="0.8" d="M1273.67 51.17L1221.65 51.17L1247.57 6.17L1273.67 51.17Z" fill="#C5C5C5"/>
<path opacity="0.8" d="M1221.67 51.17L1169.65 51.17L1195.57 6.17L1221.67 51.17Z" fill="#C5C5C5"/>
<path opacity="0.8" d="M1169.67 51.17L1117.65 51.17L1143.57 6.17L1169.67 51.17Z" fill="#C5C5C5"/>
<path opacity="0.8" d="M1117.67 51.17L1065.65 51.17L1091.57 6.17L1117.67 51.17Z" fill="#C5C5C5"/>
<path opacity="0.8" d="M1065.67 51.17L1013.65 51.17L1039.57 6.17L1065.67 51.17Z" fill="#C5C5C5"/>
<path opacity="0.8" d="M1013.67 51.17L961.65 51.17L987.57 6.17L1013.67 51.17Z" fill="#C5C5C5"/>
<path opacity="0.8" d="M961.67 51.17L909.65 51.17L935.57 6.17L961.67 51.17Z" fill="#C5C5C5"/>
<path opacity="0.8" d="M910.67 51.17L858.65 51.17L884.57 6.17L910.67 51.17Z" fill="#C5C5C5"/>
<path opacity="0.8" d="M858.67 51.17L806.65 51.17L832.57 6.17L858.67 51.17Z" fill="#C5C5C5"/>
<path opacity="0.8" d="M806.67 51.17L754.65 51.17L780.57 6.17L806.67 51.17Z" fill="#C5C5C5"/>
<path opacity="0.8" d="M754.67 51.17L702.65 51.17L728.57 6.17L754.67 51.17Z" fill="#C5C5C5"/>
<path opacity="0.8" d="M702.67 51.17L650.65 51.17L676.57 6.17L702.67 51.17Z" fill="#C5C5C5"/>
<path opacity="0.8" d="M650.67 51.17L598.65 51.17L624.57 6.17L650.67 51.17Z" fill="#C5C5C5"/>
<path opacity="0.8" d="M598.67 51.17L546.65 51.17L572.57 6.17L598.67 51.17Z" fill="#C5C5C5"/>
<path opacity="0.8" d="M546.67 51.17L494.65 51.17L520.57 6.17L546.67 51.17Z" fill="#C5C5C5"/>
<path opacity="0.8" d="M494.67 51.17L442.65 51.17L468.57 6.17L494.67 51.17Z" fill="#C5C5C5"/>
<path opacity="0.8" d="M442.67 51.17L390.65 51.17L416.57 6.17L442.67 51.17Z" fill="#C5C5C5"/>
<path opacity="0.8" d="M390.67 51.17L338.65 51.17L364.57 6.17L390.67 51.17Z" fill="#C5C5C5"/>
<path opacity="0.8" d="M338.67 51.17L286.65 51.17L312.57 6.17L338.67 51.17Z" fill="#C5C5C5"/>
<path opacity="0.8" d="M286.67 51.17L234.65 51.17L260.57 6.17L286.67 51.17Z" fill="#C5C5C5"/>
<path opacity="0.8" d="M234.67 51.17L182.65 51.17L208.57 6.17L234.67 51.17Z" fill="#C5C5C5"/>
<path opacity="0.8" d="M182.67 51.17L130.65 51.17L156.57 6.17L182.67 51.17Z" fill="#C5C5C5"/>
<path opacity="0.8" d="M130.67 51.17L78.65 51.17L104.57 6.17L130.67 51.17Z" fill="#C5C5C5"/>
<path opacity="0.8" d="M78.67 51.17L26.65 51.17L52.57 6.17L78.67 51.17Z" fill="#C5C5C5"/>
<path opacity="0.8" d="M26.6699 51.1699H-1L-0.5 6.5L26.6699 51.1699Z" fill="#C5C5C5"/>
</g>
</svg>
